<svg xmlns="http://www.w3.org/2000/svg" width="50pt" height="50pt" viewBox="0 0 50 50"><path d="M1.598 11.496A1.597 1.597 0 010 9.898v-5.52C0 3.5.715 2.786 1.598 2.786h20.207c.883 0 1.597.715 1.597 1.594v5.52c0 .882-.715 1.597-1.597 1.597zm46.804 0c.883 0 1.598-.715 1.598-1.598v-5.52c0-.878-.715-1.593-1.598-1.593H28.195c-.883 0-1.597.715-1.597 1.594v5.52c0 .882.715 1.597 1.597 1.597zM35.105 23.402a1.6 1.6 0 001.598-1.597v-5.516a1.6 1.6 0 00-1.598-1.598h-20.21a1.6 1.6 0 00-1.598 1.598v5.516a1.6 1.6 0 001.598 1.597zm-26.597 0a1.6 1.6 0 001.597-1.597v-5.516a1.6 1.6 0 00-1.597-1.598H1.715c-.883 0-1.598.715-1.598 1.598v5.516c0 .883.715 1.597 1.598 1.597zm39.777 0c.883 0 1.598-.715 1.598-1.597v-5.516c0-.883-.715-1.598-1.598-1.598h-6.793a1.6 1.6 0 00-1.597 1.598v5.516a1.6 1.6 0 001.597 1.597zM21.805 35.31c.883 0 1.597-.715 1.597-1.598v-5.516c0-.883-.715-1.597-1.597-1.597H1.598c-.883 0-1.598.715-1.598 1.597v5.516c0 .883.715 1.598 1.598 1.598zm26.597 0c.883 0 1.598-.715 1.598-1.598v-5.516c0-.883-.715-1.597-1.598-1.597H28.195c-.883 0-1.597.715-1.597 1.597v5.516c0 .883.715 1.598 1.597 1.598zM35.105 47.215c.88 0 1.598-.715 1.598-1.594v-5.52a1.6 1.6 0 00-1.598-1.597h-20.21a1.6 1.6 0 00-1.598 1.598v5.52c0 .878.719 1.593 1.598 1.593zm-26.597 0c.879 0 1.597-.715 1.597-1.594v-5.52a1.6 1.6 0 00-1.597-1.597H1.715c-.883 0-1.598.715-1.598 1.598v5.52c0 .878.715 1.593 1.598 1.593zm39.777 0c.883 0 1.598-.715 1.598-1.594v-5.52c0-.882-.715-1.597-1.598-1.597h-6.793a1.6 1.6 0 00-1.597 1.598v5.52c0 .878.718 1.593 1.597 1.593zm0 0"/></svg>